HIERARCHY
ROOT Pelvis
{
	OFFSET 0.000000 0.000000 0.000000
	CHANNELS 6 Xposition Yposition Zposition Zrotation Yrotation Xrotation 
	JOINT Left_hip
	{
		OFFSET 0.069463 -0.088608 -0.009542
		CHANNELS 3 Zrotation Yrotation Xrotation
		JOINT Left_knee
		{
			OFFSET 0.030639 -0.359740 -0.005288
			CHANNELS 3 Zrotation Yrotation Xrotation
			JOINT Left_ankle
			{
				OFFSET -0.011068 -0.376034 -0.042462
				CHANNELS 3 Zrotation Yrotation Xrotation
				JOINT Left_foot
				{
					OFFSET 0.023192 -0.053321 0.111332
					CHANNELS 3 Zrotation Yrotation Xrotation
					End Site
					{
						OFFSET 0.000000 0.000000 0.000000
					}
				}
			}
		}
	}
	JOINT Right_hip
	{
		OFFSET -0.067438 -0.088025 -0.006263
		CHANNELS 3 Zrotation Yrotation Xrotation
		JOINT Right_knee
		{
			OFFSET -0.035962 -0.366229 -0.008063
			CHANNELS 3 Zrotation Yrotation Xrotation
			JOINT Right_ankle
			{
				OFFSET 0.013608 -0.375719 -0.040481
				CHANNELS 3 Zrotation Yrotation Xrotation
				JOINT Right_foot
				{
					OFFSET -0.021034 -0.045527 0.114617
					CHANNELS 3 Zrotation Yrotation Xrotation
					End Site
					{
						OFFSET 0.000000 0.000000 0.000000
					}
				}
			}
		}
	}
	JOINT Spine1
	{
		OFFSET -0.002610 0.101823 -0.019986
		CHANNELS 3 Zrotation Yrotation Xrotation
		JOINT Spine2
		{
			OFFSET 0.004114 0.128714 -0.000938
			CHANNELS 3 Zrotation Yrotation Xrotation
			JOINT Spine3
			{
				OFFSET 0.002191 0.048470 0.027684
				CHANNELS 3 Zrotation Yrotation Xrotation
				JOINT Neck
				{
					OFFSET -0.002856 0.198873 -0.044022
					CHANNELS 3 Zrotation Yrotation Xrotation
					JOINT Head
					{
						OFFSET 0.002981 0.062960 0.049860
						CHANNELS 3 Zrotation Yrotation Xrotation
						End Site
						{
							OFFSET 0.000000 0.000000 0.000000
						}
					}
				}
				JOINT Left_collar
				{
					OFFSET 0.073708 0.112550 -0.033440
					CHANNELS 3 Zrotation Yrotation Xrotation
					JOINT Left_shoulder
					{
						OFFSET 0.083291 0.030786 -0.008013
						CHANNELS 3 Zrotation Yrotation Xrotation
						JOINT Left_elbow
						{
							OFFSET 0.245601 -0.011792 -0.027873
							CHANNELS 3 Zrotation Yrotation Xrotation
							JOINT Left_wrist
							{
								OFFSET 0.232258 0.008622 -0.000487
								CHANNELS 3 Zrotation Yrotation Xrotation
								JOINT Left_palm
								{
									OFFSET 0.077300 -0.009457 -0.012851
									CHANNELS 3 Zrotation Yrotation Xrotation
									End Site
									{
										OFFSET 0.000000 0.000000 0.000000
									}
								}
							}
						}
					}
				}
				JOINT Right_collar
				{
					OFFSET -0.075339 0.110574 -0.037874
					CHANNELS 3 Zrotation Yrotation Xrotation
					JOINT Right_shoulder
					{
						OFFSET -0.086522 0.031207 -0.009986
						CHANNELS 3 Zrotation Yrotation Xrotation
						JOINT Right_elbow
						{
							OFFSET -0.237313 -0.011478 -0.019859
							CHANNELS 3 Zrotation Yrotation Xrotation
							JOINT Right_wrist
							{
								OFFSET -0.237599 0.007976 -0.003742
								CHANNELS 3 Zrotation Yrotation Xrotation
								JOINT Right_palm
								{
									OFFSET -0.076920 -0.006943 -0.009920
									CHANNELS 3 Zrotation Yrotation Xrotation
									End Site
									{
										OFFSET 0.000000 0.000000 0.000000
									}
								}
							}
						}
					}
				}
			}
		}
	}
}
MOTION
Frames: 9
Frame Time: 0.100000
0.149776 0.951709 -0.389454 165.416626 23.043287 -108.034837 -4.578447 -6.398177 2.286964 2.536314 -11.746229 -5.555720 -8.692873 4.223972 45.958346 -2.590820 15.666306 -29.161283 15.035364 2.839423 -29.456977 -6.456253 -29.628815 59.806785 7.774170 -20.512840 23.671945 -26.939211 2.077573 2.950643 -3.325445 -5.384975 18.816485 0.993487 -3.357477 13.776147 1.332434 -3.958521 18.189144 -13.845442 -11.382211 46.757844 18.572548 -8.091720 -28.956427 6.084108 9.290282 14.948491 -89.470248 26.708016 -4.678368 175.264988 -47.964015 -152.015181 5.806615 -12.693313 -40.029559 -37.964166 -9.703605 -21.123612 -11.093237 -5.032763 6.778768 85.552972 -27.276225 -2.076628 177.974223 41.235295 -160.376262 -10.435336 21.129179 -61.467474 33.426432 -1.988301 -3.442338 
0.149265 0.956051 -0.390823 166.539368 23.064597 -107.319885 -4.434979 -6.400428 2.181292 2.645671 -11.896358 -5.650842 -8.593304 4.284082 45.740106 -2.559585 15.502668 -29.055075 15.003797 2.465354 -29.409862 -6.449944 -29.916767 60.027623 7.774297 -20.645651 22.561313 -26.895014 2.311505 3.024402 -3.416424 -5.179176 18.684738 0.697789 -3.141091 13.476184 1.241449 -3.818653 18.097252 -14.352351 -11.493990 45.596437 18.247692 -8.201580 -29.335060 5.855734 9.285224 14.921670 -89.653946 27.292274 -4.930873 174.914700 -48.095061 -152.209339 5.279982 -12.440470 -40.293742 -37.920562 -9.789794 -21.249399 -10.681926 -4.379254 6.696520 85.247919 -27.047646 -1.588367 177.601382 41.442152 -161.065631 -10.050201 21.162546 -61.571346 33.332267 -1.998143 -3.473775 
0.149792 0.956140 -0.389431 167.478913 23.536649 -106.741152 -4.401249 -6.372009 1.960992 2.272374 -12.595343 -5.655222 -8.835141 5.099752 45.766138 -0.663531 15.209999 -28.589708 14.760226 3.165126 -31.036311 -5.223145 -29.582861 61.576642 8.764985 -19.666116 18.081709 -28.499639 1.938428 2.279668 -3.576848 -5.815213 19.380621 -0.438630 -3.126603 12.220482 0.468214 -3.914703 18.538075 -15.473856 -11.467317 45.805533 18.508764 -6.190660 -29.738250 6.206954 11.785189 14.259672 -88.406291 28.721206 -4.704562 175.828699 -50.033829 -153.062623 3.971373 -13.532965 -40.472005 -36.623305 -8.442077 -20.851436 -12.065889 -6.356966 5.042807 84.363251 -26.061135 0.205150 175.990261 40.002048 -164.304244 -9.447884 23.207285 -65.276007 31.623536 -3.543090 -2.065924 
0.150994 0.956692 -0.388772 168.249701 24.006102 -106.527217 -4.187251 -6.115440 1.781437 1.863448 -12.911349 -5.326939 -8.813948 6.688081 45.313547 2.038312 14.615647 -27.408463 14.198942 4.588458 -33.975311 -4.314387 -28.881206 63.750623 10.589677 -18.782759 15.321761 -31.884481 0.872130 0.558607 -3.808860 -7.110604 20.565047 -1.997224 -3.378237 10.768933 -0.856601 -4.078628 19.430589 -17.256408 -12.716250 48.300251 19.498764 -4.383828 -28.446149 6.210669 15.324660 13.617725 -86.878181 29.704225 -4.943246 175.314731 -55.985583 -150.436966 2.827644 -13.794921 -36.331484 -33.965206 -6.480753 -19.901548 -14.080641 -9.487959 3.341087 83.653574 -23.936871 1.563621 174.667521 37.354683 -166.922281 -9.113233 26.039874 -68.590056 28.807058 -5.766799 0.294536 
0.155089 0.953627 -0.388651 168.007545 24.089500 -107.377585 -3.792461 -5.336836 2.254387 1.849039 -13.201005 -5.479350 -9.187718 7.398210 45.280562 3.082154 14.420722 -26.243622 12.677529 6.116969 -37.252475 -4.864119 -27.216283 63.747476 12.162331 -19.165887 15.577870 -35.308553 -0.850758 -0.688464 -3.967265 -8.657070 21.921002 -3.289040 -3.866404 9.678253 -2.159986 -4.210300 20.501541 -19.222768 -14.365915 53.602354 21.061747 -4.287252 -25.748975 5.674467 17.001499 12.813173 -86.689218 30.034410 -5.120918 171.757513 -66.479289 -142.557427 7.042463 -12.654333 -29.968223 -30.451512 -4.045539 -17.553982 -15.711522 -11.485742 1.849202 84.059394 -21.440586 2.278222 174.322499 35.877522 -167.043263 -14.040979 25.643884 -69.483899 26.120016 -7.968890 2.620524 
0.155451 0.957417 -0.392054 167.664270 23.859179 -108.234527 -3.355077 -4.453586 2.677919 1.347841 -13.005291 -4.741638 -7.765777 8.245014 42.328838 3.334407 13.855498 -23.882256 9.509168 6.848523 -40.144937 -4.734332 -24.174870 62.603504 14.353439 -19.262028 15.387909 -38.693464 -2.250693 -1.663610 -3.803002 -9.762580 23.273321 -3.926260 -4.676966 8.788591 -3.055291 -4.207151 21.576197 -20.762015 -16.635809 59.565726 23.616263 -3.950596 -20.501139 3.943625 17.111896 12.055050 -86.619499 29.675646 -4.920003 145.644284 -80.179997 -115.004212 8.666793 -11.634459 -26.075942 -27.072368 -1.903603 -14.820903 -16.504920 -12.357713 0.628251 84.275879 -19.488355 2.715091 174.028008 35.561634 -169.778126 -15.455057 26.578201 -71.645975 23.352262 -9.882026 4.700719 
0.154692 0.961739 -0.395093 168.440171 23.425999 -107.890722 -2.600552 -3.882120 2.394098 1.286054 -13.119336 -4.337777 -7.679735 8.802808 42.332880 4.192655 13.346250 -23.980724 6.321358 6.458846 -41.966624 -5.136479 -21.345089 62.435649 16.440376 -19.565723 15.577989 -42.109171 -2.820173 -3.221494 -3.144234 -10.147641 23.719204 -3.742293 -4.874578 8.791189 -3.211856 -3.825863 21.362653 -18.550100 -19.316524 62.610268 26.895259 -4.178128 -14.583970 2.782206 18.745804 11.263427 -84.097001 28.995167 -4.088417 137.183334 -83.302348 -102.195070 9.454976 -12.455886 -18.207139 -26.383475 -2.566074 -13.977132 -16.591166 -13.281171 0.897714 83.754182 -18.147105 3.358557 173.111148 35.051785 -170.745578 -14.285423 29.191087 -70.113700 21.600263 -9.288390 5.454740 
0.157546 0.962838 -0.394506 170.385282 23.428651 -106.594682 -2.165509 -4.143669 1.983492 1.297786 -14.270962 -4.370024 -7.348070 8.536547 42.942329 3.571104 13.132089 -24.629091 3.614458 5.546808 -42.389684 -5.350048 -18.843621 62.599369 18.310776 -19.586649 15.185035 -44.702026 -3.205082 -4.352956 -2.468329 -9.853514 23.036382 -3.664724 -4.805351 9.327403 -3.171560 -3.105927 20.572684 -16.150371 -21.864686 63.641600 29.923223 -4.550622 -10.173840 1.512364 18.811688 10.753626 -81.864914 28.625195 -3.352843 139.558653 -85.343168 -100.631753 9.382422 -12.870306 -11.314886 -26.274044 -3.678539 -13.981565 -16.665917 -12.764400 1.887158 84.650494 -17.544556 3.101482 172.373447 34.989094 -170.399292 -13.402977 30.552551 -67.090685 21.007996 -8.159060 5.187254 
0.165772 0.962583 -0.391238 173.731670 23.380789 -104.676436 -1.011500 -3.958304 1.008834 1.096288 -14.465420 -3.406139 -6.911051 8.514354 43.025861 3.165079 12.531678 -25.436109 2.264466 5.179863 -41.576302 -5.628186 -16.615459 63.613515 19.974017 -20.423448 14.938921 -47.701631 -2.846050 -5.360491 -2.076801 -9.098874 22.161778 -4.231410 -4.481240 9.532704 -3.486611 -2.168129 20.284080 -15.923012 -22.545723 63.639485 31.172345 -5.262141 -7.973838 1.161547 18.453271 10.684320 -80.762106 28.934202 -3.550367 111.379749 -87.239575 -71.552456 4.285827 -11.597230 -9.174899 -26.991686 -5.027814 -15.063704 -16.657002 -11.324199 2.502931 86.428582 -16.767324 2.924264 173.132388 35.262763 -170.050581 -10.767081 31.359747 -67.636213 21.614619 -7.428570 4.438666 
